<svg width="48" height="48" viewBox="0 0 48 48" fill="none" xmlns="http://www.w3.org/2000/svg">
<rect width="48" height="48" rx="5" fill="white"/>
<g clip-path="url(#clip0)">
<path d="M27.8187 18.963L28.7155 18.9783L31.1524 16.5415L31.2705 15.509C29.3377 13.787 26.7857 12.7383 23.9971 12.7383C18.9483 12.7383 14.6871 16.1735 13.4258 20.8268C13.6918 20.6413 14.2605 20.7804 14.2605 20.7804L19.1299 19.9798C19.1299 19.9798 19.3802 19.5655 19.507 19.586C20.0764 18.9605 20.7702 18.4608 21.5439 18.119C22.3177 17.7772 23.1543 17.6008 24.0002 17.6011C25.4439 17.6042 26.7739 18.1143 27.8187 18.9582V18.963Z" fill="#EA4335"/>
<path d="M34.5744 20.8372C34.0087 18.7503 32.8427 16.9076 31.269 15.5098L27.8185 18.9603C29.201 20.076 30.0878 21.7831 30.0878 23.6941V24.3031C31.7665 24.3031 33.1302 25.6698 33.1302 27.3455C33.1302 29.0241 31.7634 30.3878 30.0878 30.3878H24.003L23.394 31.0003V34.6517L24.003 35.2576H30.0878C32.1853 35.2547 34.196 34.4203 35.6792 32.9372C37.1624 31.4541 37.997 29.4434 38 27.3459C37.9969 24.6531 36.6437 22.2709 34.5744 20.8376V20.8372Z" fill="#4285F4"/>
<path d="M17.9119 35.2611H23.9932V30.3874H17.9119C17.4799 30.3874 17.0528 30.2946 16.6598 30.1152L15.7817 30.3843L13.3448 32.8212L13.1313 33.6437C14.5046 34.6913 16.1842 35.2584 17.9115 35.2576L17.9119 35.2611Z" fill="#34A853"/>
<path d="M17.9122 19.4365C15.8147 19.4394 13.804 20.2739 12.3208 21.757C10.8376 23.2401 10.003 25.2508 10 27.3483C10 29.9177 11.2307 32.2023 13.1351 33.6496L16.6631 30.1216C16.1291 29.8808 15.6759 29.4911 15.3578 28.9992C15.0397 28.5073 14.8703 27.9341 14.8698 27.3483C14.8698 25.6696 16.2366 24.3059 17.9122 24.3059C19.1459 24.3059 20.2064 25.0496 20.6859 26.0996L24.2139 22.5716C22.7671 20.6672 20.4821 19.4365 17.9126 19.4365H17.9122Z" fill="#FBBC05"/>
</g>
<defs>
<clipPath id="clip0">
<rect width="28" height="28" fill="white" transform="translate(10 10)"/>
</clipPath>
</defs>
</svg>
