<svg width="29" height="30" viewBox="0 0 29 30" fill="none" xmlns="http://www.w3.org/2000/svg">
<path d="M19.424 28.2728V23.185C19.424 21.7313 19.5694 21.1499 18.6972 20.2777C22.7674 19.8416 26.6924 18.2425 26.6924 11.5556C26.6906 9.81846 26.0128 8.15015 24.8026 6.90391C25.3702 5.39495 25.3179 3.72274 24.6572 2.25216C24.6572 2.25216 23.0582 1.81606 19.5694 4.14193C16.6144 3.37234 13.5116 3.37234 10.5566 4.14193C7.06782 1.81606 5.46879 2.25216 5.46879 2.25216C4.80807 3.72274 4.75581 5.39495 5.32342 6.90391C4.11317 8.15015 3.43542 9.81846 3.43365 11.5556C3.43365 18.2425 7.35856 19.8416 11.4288 20.2777C10.5566 21.1499 10.5566 22.0221 10.702 23.185V28.2728M10.702 25.3655C4.45122 27.4006 4.45122 21.7313 1.97998 21.0045L10.702 25.3655Z" stroke="white" stroke-width="3" stroke-linecap="round" stroke-linejoin="round"/>
</svg>
