<svg width="36" height="36" viewBox="0 0 36 36" fill="none" xmlns="http://www.w3.org/2000/svg">
<path d="M23.7507 6.56055H12.1213C8.90996 6.56055 6.30664 9.16387 6.30664 12.3752V24.0046C6.30664 27.2159 8.90996 29.8193 12.1213 29.8193H23.7507C26.962 29.8193 29.5653 27.2159 29.5653 24.0046V12.3752C29.5653 9.16387 26.962 6.56055 23.7507 6.56055Z" stroke="white" stroke-width="3" stroke-linecap="round" stroke-linejoin="round"/>
<path d="M17.9362 22.5511C20.3447 22.5511 22.2972 20.5986 22.2972 18.1901C22.2972 15.7816 20.3447 13.8291 17.9362 13.8291C15.5277 13.8291 13.5752 15.7816 13.5752 18.1901C13.5752 20.5986 15.5277 22.5511 17.9362 22.5511Z" stroke="white" stroke-width="3" stroke-linecap="round" stroke-linejoin="round"/>
<path d="M24.4775 11.6484V11.6505" stroke="white" stroke-width="3" stroke-linecap="round" stroke-linejoin="round"/>
</svg>
