<svg width="48" height="48" viewBox="0 0 48 48" fill="none" xmlns="http://www.w3.org/2000/svg">
<path d="M0 5C0 2.23858 2.23858 0 5 0H43C45.7614 0 48 2.23858 48 5V43C48 45.7614 45.7614 48 43 48H5C2.23858 48 0 45.7614 0 43V5Z" fill="#F7DF1E"/>
<path d="M12.6212 40.1128L16.2945 37.8898C17.0031 39.1462 17.6478 40.2093 19.194 40.2093C20.6763 40.2093 21.6107 39.6295 21.6107 37.3743V22.0371H26.1215V37.438C26.1215 42.11 23.3829 44.2366 19.3874 44.2366C15.779 44.2366 13.6843 42.3677 12.6211 40.1124" fill="black"/>
<path d="M28.5713 39.6285L32.2441 37.502C33.211 39.0809 34.4676 40.2408 36.6907 40.2408C38.5597 40.2408 39.7516 39.3063 39.7516 38.0175C39.7516 36.4709 38.5273 35.9231 36.4651 35.0212L35.3377 34.5376C32.0832 33.1523 29.9244 31.4125 29.9244 27.7392C29.9244 24.3561 32.502 21.7783 36.5297 21.7783C39.3974 21.7783 41.4595 22.7773 42.9414 25.3872L39.4294 27.6425C38.656 26.2571 37.8185 25.7094 36.5298 25.7094C35.2087 25.7094 34.3709 26.5472 34.3709 27.6425C34.3709 28.9958 35.2087 29.5437 37.1417 30.3814L38.2694 30.8647C42.1036 32.5081 44.2625 34.1833 44.2625 37.953C44.2625 42.0131 41.0727 44.2361 36.7874 44.2361C32.5988 44.2361 29.8922 42.2385 28.5714 39.6285" fill="black"/>
</svg>
