<svg width="48" height="48" viewBox="0 0 48 48" fill="none" xmlns="http://www.w3.org/2000/svg">
<rect width="48" height="48" rx="5" fill="#13AA52"/>
<path d="M31.9174 21.0268C30.1119 13.1052 25.8447 10.5003 25.3854 9.50533C24.8815 8.80299 24.3736 7.55439 24.3736 7.55439C24.3649 7.53332 24.3516 7.49586 24.3359 7.45996C24.2841 8.1623 24.2574 8.43309 23.5894 9.1409C22.5555 9.94469 17.2505 14.3694 16.8187 23.3695C16.416 31.7633 22.9182 36.7655 23.7997 37.4031L23.8994 37.4733V37.4671C23.9049 37.5092 24.1781 39.4649 24.3704 41.5375H25.0589C25.2209 40.0726 25.4636 38.6176 25.7858 37.1791L25.8392 37.1432C26.2324 36.8628 26.6074 36.5579 26.9617 36.2302L27.0018 36.1943C28.8709 34.4775 32.2314 30.5069 32.1985 24.1765C32.1918 23.1207 32.0978 22.0673 31.9174 21.0268ZM24.2959 32.6639C24.2959 32.6639 24.2959 20.8911 24.6884 20.8934C24.9929 20.8934 25.3878 36.0788 25.3878 36.0788C24.8438 36.014 24.2959 33.58 24.2959 32.6639Z" fill="white"/>
</svg>
