<svg width="48" height="48" viewBox="0 0 48 48" fill="none" xmlns="http://www.w3.org/2000/svg">
<rect width="48" height="48" rx="5" fill="white"/>
<path d="M0.141602 23.9547C0.141602 27.4634 3.65957 30.7389 9.20593 32.5852C8.09837 38.0156 9.00743 42.3924 12.0438 44.0979C15.1649 45.8507 19.8145 44.6374 24.2276 40.8804C28.5294 44.4857 32.8772 45.9046 35.9107 44.1943C39.0287 42.4363 39.9771 37.7626 38.839 32.1627C44.6158 30.3026 47.8472 27.5096 47.8472 23.9547C47.8472 20.5273 44.3227 17.5622 38.8511 15.7278C40.0764 9.89646 39.0382 5.62583 35.8762 3.84993C32.8276 2.13785 28.4294 3.6301 24.0644 7.32981C19.5233 3.40286 15.1685 2.20392 12.0095 3.98499C8.96387 5.70194 8.09479 10.1583 9.20593 15.6892C3.84685 17.509 0.141602 20.5411 0.141602 23.9547Z" fill="white"/>
<path d="M37.692 17.5492C37.2525 17.4018 36.797 17.2624 36.3281 17.1306C36.4052 16.8242 36.4759 16.5219 36.5388 16.2246C37.5712 11.344 36.8962 7.41211 34.5912 6.11756C32.381 4.87627 28.7664 6.17052 25.1159 9.26461C24.7648 9.56214 24.4128 9.87715 24.0609 10.2073C23.8265 9.98886 23.5924 9.77778 23.3589 9.57588C19.533 6.26747 15.6982 4.87326 13.3954 6.17155C11.1874 7.41644 10.5335 11.1128 11.4628 15.7382C11.5525 16.185 11.6574 16.6412 11.776 17.1051C11.2333 17.2552 10.7093 17.4151 10.208 17.5853C5.72253 19.1083 2.85791 21.4953 2.85791 23.9712C2.85791 26.5283 5.93308 29.0932 10.605 30.6484C10.9737 30.7711 11.3563 30.8872 11.7505 30.9973C11.6226 31.499 11.5113 31.9907 11.4178 32.4702C10.5317 37.0153 11.2237 40.6244 13.4259 41.8614C15.7006 43.1389 19.5181 41.8258 23.2354 38.6612C23.5292 38.411 23.8241 38.1457 24.1195 37.8677C24.5023 38.2267 24.8846 38.5666 25.2648 38.8853C28.8655 41.903 32.4217 43.1215 34.6218 41.881C36.8942 40.5998 37.6328 36.7229 36.674 32.0059C36.6007 31.6457 36.5155 31.2777 36.4198 30.9031C36.6879 30.8259 36.9511 30.7462 37.2077 30.6634C42.0647 29.0961 45.2248 26.5625 45.2248 23.9712C45.2248 21.4863 42.2678 19.0833 37.692 17.5492Z" fill="#53C1DE"/>
<path d="M36.6388 28.9904C36.4071 29.065 36.1694 29.1372 35.9272 29.2072C35.391 27.5541 34.6673 25.7961 33.7818 23.9799C34.6268 22.207 35.3225 20.4715 35.8437 18.8291C36.2771 18.9512 36.6977 19.08 37.1031 19.216C41.0236 20.5304 43.4151 22.4739 43.4151 23.9713C43.4151 25.5664 40.8324 27.6371 36.6388 28.9904ZM34.8987 32.3484C35.3227 34.4342 35.3832 36.32 35.1024 37.7941C34.8501 39.1188 34.3426 40.002 33.7152 40.3557C32.38 41.1084 29.5247 40.13 26.4454 37.5493C26.0924 37.2534 25.7368 36.9376 25.3801 36.6032C26.5739 35.3317 27.767 33.8534 28.9315 32.2117C30.9796 32.0347 32.9146 31.7453 34.6694 31.3503C34.7558 31.6898 34.8326 32.0228 34.8987 32.3484ZM17.302 40.2256C15.9975 40.6743 14.9585 40.6871 14.3305 40.3345C12.9941 39.5838 12.4385 36.6861 13.1964 32.7991C13.2832 32.3539 13.3865 31.8966 13.5055 31.4292C15.2411 31.803 17.1619 32.072 19.2149 32.2341C20.3872 33.8405 21.6148 35.3171 22.8519 36.6101C22.5816 36.8642 22.3124 37.1061 22.0446 37.3341C20.4009 38.7334 18.7536 39.7263 17.302 40.2256ZM11.1906 28.9806C9.12477 28.2929 7.41871 27.3992 6.24929 26.4239C5.1985 25.5475 4.66797 24.6774 4.66797 23.9713C4.66797 22.4689 6.96797 20.5525 10.804 19.2499C11.2694 19.0919 11.7567 18.9429 12.2623 18.803C12.7924 20.4825 13.4879 22.2385 14.3272 24.0142C13.477 25.8163 12.7717 27.6003 12.2364 29.2995C11.8759 29.1986 11.5267 29.0924 11.1906 28.9806ZM13.2392 15.3998C12.443 11.4369 12.9718 8.44738 14.3024 7.69721C15.7198 6.89805 18.854 8.03748 22.1574 10.8941C22.3685 11.0767 22.5805 11.2678 22.7931 11.4655C21.5622 12.7528 20.3458 14.2183 19.184 15.8153C17.1914 15.9952 15.2841 16.2841 13.5304 16.671C13.4202 16.2391 13.3225 15.8147 13.2392 15.3998ZM31.5143 19.7947C31.0951 19.0895 30.6647 18.401 30.226 17.7312C31.5778 17.8976 32.8729 18.1186 34.0891 18.3889C33.724 19.5286 33.2689 20.7203 32.7332 21.9419C32.3489 21.2313 31.9424 20.5149 31.5143 19.7947ZM24.0618 12.7253C24.8966 13.6061 25.7326 14.5895 26.5549 15.6565C25.7263 15.6184 24.8874 15.5986 24.0416 15.5986C23.2037 15.5986 22.371 15.618 21.5475 15.6554C22.3707 14.5983 23.2139 13.6162 24.0618 12.7253ZM16.5615 19.8069C16.1427 20.5141 15.7438 21.2267 15.3655 21.9406C14.8385 20.7232 14.3876 19.5261 14.0193 18.3703C15.228 18.1068 16.5171 17.8914 17.8602 17.7281C17.4153 18.404 16.9814 19.0977 16.5615 19.8068V19.8069ZM17.8989 30.3403C16.5112 30.1895 15.2028 29.9852 13.9943 29.729C14.3685 28.5525 14.8293 27.3298 15.3676 26.0863C15.7468 26.7996 16.1473 27.5125 16.5687 28.2212H16.5687C16.9979 28.9433 17.4425 29.6506 17.8989 30.3403ZM24.1119 35.3417C23.254 34.4403 22.3984 33.4432 21.5628 32.3707C22.374 32.4017 23.201 32.4175 24.0416 32.4175C24.9051 32.4175 25.7588 32.3986 26.599 32.3621C25.774 33.454 24.941 34.4526 24.1119 35.3417ZM32.7504 26.0229C33.3167 27.2799 33.7941 28.4961 34.1731 29.6526C32.9447 29.9255 31.6184 30.1453 30.221 30.3087C30.6608 29.6299 31.095 28.9295 31.5216 28.2091C31.9532 27.4802 32.363 26.7503 32.7504 26.0229ZM29.9538 27.3285C29.2916 28.4469 28.6116 29.5145 27.9214 30.5222C26.6642 30.6097 25.3654 30.6548 24.0416 30.6548C22.7231 30.6548 21.4407 30.615 20.2057 30.5369C19.4876 29.5159 18.7929 28.4452 18.1349 27.3381H18.135C17.4787 26.2341 16.8747 25.1207 16.3273 24.0136C16.8745 22.904 17.477 21.7893 18.1295 20.6873L18.1294 20.6875C18.7837 19.5825 19.4723 18.517 20.1837 17.5024C21.4437 17.4097 22.7357 17.3613 24.0415 17.3613H24.0416C25.3532 17.3613 26.6469 17.41 27.9065 17.5036C28.6071 18.5108 29.291 19.5728 29.9479 20.678C30.6122 21.7955 31.2224 22.9027 31.7743 23.9886C31.2241 25.0931 30.6152 26.2115 29.9538 27.3285ZM33.6874 7.64477C35.1062 8.44158 35.6579 11.6551 34.7665 15.869C34.7096 16.1379 34.6456 16.4118 34.5761 16.6893C32.8184 16.2943 30.9097 16.0004 28.9113 15.8178C27.7472 14.2033 26.5408 12.7355 25.3299 11.4647C25.6555 11.1597 25.9806 10.8689 26.3043 10.5944C29.4321 7.9434 32.3555 6.89673 33.6874 7.64477Z" fill="white"/>
<path d="M24.0415 20.2871C26.1309 20.2871 27.8247 21.9367 27.8247 23.9716C27.8247 26.0065 26.1309 27.6562 24.0415 27.6562C21.9521 27.6562 20.2583 26.0065 20.2583 23.9716C20.2583 21.9367 21.9521 20.2871 24.0415 20.2871Z" fill="#53C1DE"/>
</svg>
