<svg width="48" height="48" viewBox="0 0 48 48" fill="none" xmlns="http://www.w3.org/2000/svg">
<path d="M43.3125 0H4.6875C2.09867 0 0 2.09867 0 4.6875V43.3125C0 45.9013 2.09867 48 4.6875 48H43.3125C45.9013 48 48 45.9013 48 43.3125V4.6875C48 2.09867 45.9013 0 43.3125 0Z" fill="#3178C6"/>
<path fill-rule="evenodd" clip-rule="evenodd" d="M29.7188 38.156V42.8435C30.4781 43.2373 31.4062 43.5279 32.4375 43.7248C33.4688 43.9216 34.5938 44.0154 35.7188 44.0154C36.8438 44.0154 37.875 43.9123 38.9062 43.6966C39.9375 43.481 40.7812 43.1248 41.5312 42.6654C42.2906 42.1685 42.9375 41.5404 43.3125 40.6966C43.6875 39.8529 43.9781 38.9154 43.9781 37.6966C43.9781 36.8435 43.8469 36.1029 43.5938 35.4466C43.3406 34.7904 42.975 34.2279 42.4688 33.7591C41.9906 33.2623 41.4375 32.8216 40.7812 32.4466C40.125 32.0716 39.375 31.6779 38.5312 31.3216C37.9125 31.0685 37.4062 30.8248 36.8438 30.581C36.3563 30.3373 35.9344 30.0935 35.625 29.8498C35.2781 29.5966 35.0156 29.3341 34.8281 29.0623C34.6406 28.781 34.5469 28.4716 34.5469 28.1248C34.5469 27.806 34.6303 27.5154 34.8 27.2529C34.9697 26.9904 35.2031 26.7748 35.5031 26.5873C35.8031 26.3998 36.1781 26.2591 36.6281 26.156C37.0688 26.0529 37.5563 26.006 38.1281 26.006C38.5219 26.006 38.9344 26.0351 39.3469 26.0941C39.7781 26.1532 40.2188 26.2441 40.6594 26.366C41.1 26.4879 41.5313 26.6379 41.9719 26.8254C42.3844 27.0129 42.7688 27.2285 43.0969 27.4723V23.066C42.3844 22.7941 41.5969 22.5879 40.7531 22.4566C39.9094 22.3254 38.9719 22.2598 37.8469 22.2598C36.7219 22.2598 35.6906 22.3816 34.6594 22.616C33.6281 22.8504 32.7844 23.2254 32.0344 23.741C31.275 24.2473 30.7219 24.866 30.2531 25.7098C29.8125 26.4973 29.5969 27.3973 29.5969 28.5223C29.5969 29.9285 30 31.1473 30.8156 32.0848C31.6219 33.116 32.8781 33.866 34.4719 34.616C35.1188 34.8785 35.6906 35.141 36.2531 35.3941C36.8156 35.6473 37.2844 35.9098 37.6594 36.1816C38.0625 36.4535 38.3813 36.7535 38.5969 37.0723C38.8313 37.391 38.9531 37.766 38.9531 38.1973C38.9531 38.4973 38.88 38.7785 38.7375 39.041C38.595 39.3035 38.3719 39.5285 38.0719 39.716C37.7719 39.9035 37.4062 40.0535 36.9469 40.166C36.5063 40.2691 36.0094 40.3254 35.3531 40.3254C34.3219 40.3254 33.2906 40.1473 32.3531 39.791C31.3219 39.4348 30.3844 38.9004 29.5406 38.1973L29.7188 38.156ZM21.8438 26.6248H27.8438V22.781H11.0625V26.6248H17.0625V43.781H21.8438V26.6248Z" fill="white"/>
</svg>
