<svg width="33" height="28" viewBox="0 0 33 28" fill="none" xmlns="http://www.w3.org/2000/svg">
<path d="M30.7267 2.57484C29.273 3.28714 27.8484 3.57642 26.3657 4.01397C24.7361 2.17508 22.3201 2.07332 19.9986 2.94262C17.6771 3.81191 16.1566 5.93717 16.19 8.37498V9.82865C11.4729 9.9493 7.27175 7.80078 4.56066 4.01397C4.56066 4.01397 -1.51859 14.8191 10.3753 20.0043C7.65407 21.8171 4.94007 23.0396 1.65332 22.9117C6.46206 25.5326 11.7025 26.4339 16.2394 25.1169C21.4436 23.6051 25.7203 19.7049 27.3615 13.8626C27.851 12.0857 28.0941 10.25 28.0839 8.40696C28.081 8.045 30.279 4.37739 30.7267 2.57338V2.57484Z" stroke="white" stroke-width="3" stroke-linecap="round" stroke-linejoin="round"/>
</svg>
